<svg width="300" height="450" viewBox="0 0 300 450" fill="none" xmlns="http://www.w3.org/2000/svg">
<rect width="300" height="450" fill="#FDB813"/>
<path d="M168.85 194.3L114.8 56.99L60.98 194.3L39.13 194.3L105.37 31H124.23L190.7 194.3H168.85Z" fill="black"/>
<path d="M129.15 134.7L183.2 272.01L237.02 134.7H258.87L192.63 298H173.77L107.3 134.7H129.15Z" fill="black"/>
<path d="M89.425 358.935H70.13V409H58.485V358.935H39.19V348.65H89.425V358.935ZM138.822 398.715V409H96.917V348.65H138.057V358.935H108.647V373.47H134.062V382.99H108.647V398.715H138.822ZM143.233 378.4C143.233 374.717 143.884 371.118 145.188 367.605C146.548 364.035 148.503 360.805 151.053 357.915C153.603 354.968 156.719 352.645 160.403 350.945C164.086 349.188 168.279 348.31 172.983 348.31C178.536 348.31 183.324 349.528 187.348 351.965C191.428 354.402 194.459 357.575 196.443 361.485L187.433 367.69C186.413 365.423 185.081 363.638 183.438 362.335C181.794 360.975 180.038 360.04 178.168 359.53C176.298 358.963 174.456 358.68 172.643 358.68C169.696 358.68 167.118 359.275 164.908 360.465C162.754 361.655 160.941 363.213 159.468 365.14C157.994 367.067 156.889 369.22 156.153 371.6C155.473 373.98 155.133 376.36 155.133 378.74C155.133 381.403 155.558 383.982 156.408 386.475C157.258 388.912 158.448 391.093 159.978 393.02C161.564 394.89 163.434 396.392 165.588 397.525C167.798 398.602 170.206 399.14 172.813 399.14C174.683 399.14 176.581 398.828 178.508 398.205C180.434 397.582 182.219 396.59 183.863 395.23C185.506 393.87 186.781 392.113 187.688 389.96L197.293 395.485C196.103 398.488 194.148 401.038 191.428 403.135C188.764 405.232 185.761 406.818 182.418 407.895C179.074 408.972 175.759 409.51 172.473 409.51C168.166 409.51 164.228 408.632 160.658 406.875C157.088 405.062 153.999 402.682 151.393 399.735C148.843 396.732 146.831 393.388 145.358 389.705C143.941 385.965 143.233 382.197 143.233 378.4ZM255.904 348.65V409H244.259V383.245H216.889V409H205.159V348.65H216.889V373.045H244.259V348.65H255.904Z" fill="black"/>
</svg>
