<svg width="234" height="381" viewBox="0 0 234 381" fill="none" xmlns="http://www.w3.org/2000/svg">
<path d="M130.85 163.3L76.8 25.99L22.98 163.3L1.12999 163.3L67.37 0H86.23L152.7 163.3H130.85Z" fill="black"/>
<path d="M91.15 103.7L145.2 241.01L199.02 103.7H220.87L154.63 267H135.77L69.3 103.7H91.15Z" fill="black"/>
<path d="M51.425 327.935H32.13V378H20.485V327.935H1.19V317.65H51.425V327.935ZM100.822 367.715V378H58.917V317.65H100.057V327.935H70.647V342.47H96.062V351.99H70.647V367.715H100.822ZM105.233 347.4C105.233 343.717 105.884 340.118 107.188 336.605C108.548 333.035 110.503 329.805 113.053 326.915C115.603 323.968 118.719 321.645 122.403 319.945C126.086 318.188 130.279 317.31 134.983 317.31C140.536 317.31 145.324 318.528 149.348 320.965C153.428 323.402 156.459 326.575 158.443 330.485L149.433 336.69C148.413 334.423 147.081 332.638 145.438 331.335C143.794 329.975 142.038 329.04 140.168 328.53C138.298 327.963 136.456 327.68 134.643 327.68C131.696 327.68 129.118 328.275 126.908 329.465C124.754 330.655 122.941 332.213 121.468 334.14C119.994 336.067 118.889 338.22 118.153 340.6C117.473 342.98 117.133 345.36 117.133 347.74C117.133 350.403 117.558 352.982 118.408 355.475C119.258 357.912 120.448 360.093 121.978 362.02C123.564 363.89 125.434 365.392 127.588 366.525C129.798 367.602 132.206 368.14 134.813 368.14C136.683 368.14 138.581 367.828 140.508 367.205C142.434 366.582 144.219 365.59 145.863 364.23C147.506 362.87 148.781 361.113 149.688 358.96L159.293 364.485C158.103 367.488 156.148 370.038 153.428 372.135C150.764 374.232 147.761 375.818 144.418 376.895C141.074 377.972 137.759 378.51 134.473 378.51C130.166 378.51 126.228 377.632 122.658 375.875C119.088 374.062 115.999 371.682 113.393 368.735C110.843 365.732 108.831 362.388 107.358 358.705C105.941 354.965 105.233 351.197 105.233 347.4ZM217.904 317.65V378H206.259V352.245H178.889V378H167.159V317.65H178.889V342.045H206.259V317.65H217.904Z" fill="black"/>
</svg>
